# xmcd
#
# Track frame offsets:
#	150
#	16461
#	31515
#	43722
#	60843
#	77283
#	92474
#	105237
#	123839
#	136490
#	154343
#	172059
#	190831
#	209814
#	229730
#	245845
#	268600
#	284725
#
# Disc length: 4124 seconds
# Revision: 0
# Processed by: cddbd v1.5.2PL0 Copyright (c) Steve Scherf et al.
# Submitted via: dBpowerAMP V12.0
#
DISCID=f1101a12
DTITLE=Clouseau - CLOUSEAU 20
DYEAR=2007
DGENRE=Nederlandstalig
TTITLE0=Brandweer
TTITLE1=Alleen Met Jou
TTITLE2=Anne
TTITLE3=Daar Gaat Ze
TTITLE4=Dansen
TTITLE5=Louise
TTITLE6=Zij Is Van Mij
TTITLE7=Domino
TTITLE8=Geef Het Op
TTITLE9=Vanavond Ga Ik Uit
TTITLE10=Altijd Heb Ik Je Lief
TTITLE11=Afscheid Van Een Vriend
TTITLE12=Take Me Down
TTITLE13=Worship
TTITLE14=Laat Me Nu Toch Niet Alleen
TTITLE15=Passie
TTITLE16=Zie Me Graag
TTITLE17=Oker
EXTD=
EXTT0=
EXTT1=
EXTT2=
EXTT3=
EXTT4=
EXTT5=
EXTT6=
EXTT7=
EXTT8=
EXTT9=
EXTT10=
EXTT11=
EXTT12=
EXTT13=
EXTT14=
EXTT15=
EXTT16=
EXTT17=
PLAYORDER=
